<svg width="96" height="96" viewBox="0 0 96 96" fill="none" xmlns="http://www.w3.org/2000/svg">
  <defs>
    <linearGradient id="avatarBg" x1="12" y1="10" x2="84" y2="86" gradientUnits="userSpaceOnUse">
      <stop stop-color="#BDE9FF"/>
      <stop offset="1" stop-color="#FFE8C4"/>
    </linearGradient>
  </defs>
  <rect width="96" height="96" rx="48" fill="url(#avatarBg)"/>
  <circle cx="48" cy="38" r="17" fill="#F4C7A1"/>
  <path d="M24 83C26.8 66.4 37.1 58 48 58C58.9 58 69.2 66.4 72 83H24Z" fill="#0E7C86"/>
  <path d="M32 36C32 26.6 39.6 19 49 19C57.8 19 64 24.7 64 34.2C64 39.4 62 43.3 58.5 46.5C55.8 42.7 51.5 40.2 46.6 40.2C41.3 40.2 36.8 43.1 34.2 47.4C32.7 44.5 32 40.9 32 36Z" fill="#2C3648"/>
  <circle cx="72" cy="74" r="13" fill="#FFFFFF"/>
  <path d="M66 74.3L70.2 78.5L78.8 69.9" stroke="#12A150" stroke-width="5" stroke-linecap="round" stroke-linejoin="round"/>
</svg>
